<svg
	fill="none"
	stroke="currentColor"
	stroke-linecap="round"
	stroke-linejoin="round"
	stroke-width="1.5"
	viewBox="0 0 21.555 21.533"
>
   <path
		d="M12.778 12.755c.763-.733 1.552-1.834 2.75-1.652 1.168.22 1.81 1.323 2.65 2.052l.6.6m-16 0c1.498-1.447 2.897-3.006 4.464-4.377.916-.588 2.151-.205 2.78.622l4.756 4.755m-9-12c3.485.02 6.973-.04 10.457.03 1.597.2 2.762 1.852 2.542 3.423-.018 3.335.04 6.671-.03 10.004-.2 1.597-1.852 2.762-3.423 2.542-3.334-.018-6.67.04-10.004-.03-1.597-.2-2.761-1.851-2.542-3.422.018-3.331-.04-6.665.03-9.994.185-1.426 1.53-2.59 2.97-2.553zm8 4h.01"
	/>
</svg>
