<svg viewBox="0 0 20 20">
   <path
		d="M3.684 14H2.421c-.233 0-.421.224-.421.5v3c0 .276.188.5.421.5h1.263c.233 0 .421-.224.421-.5v-3c0-.276-.188-.5-.42-.5z"
	/>
   <path
		d="M7.158 11H5.895c-.233 0-.421.224-.421.5v6c0 .276.188.5.42.5h1.264c.233 0 .42-.224.42-.5v-6c0-.276-.187-.5-.42-.5z"
	/>
   <path
		d="M10.632 8H9.368c-.232 0-.42.224-.42.5v9c0 .276.188.5.42.5h1.264c.232 0 .42-.224.42-.5v-9c0-.276-.188-.5-.42-.5z"
	/>
   <path
		d="M14.105 5h-1.263c-.233 0-.42.224-.42.5v12c0 .276.187.5.42.5h1.263c.233 0 .421-.224.421-.5v-12c0-.276-.188-.5-.42-.5z"
	/>
   <path
		d="M17.579 2h-1.263c-.233 0-.421.224-.421.5v15c0 .276.188.5.42.5h1.264c.233 0 .421-.224.421-.5v-15c0-.276-.188-.5-.421-.5z"
	/>
</svg>
